<?xml version="1.0" standalone="no"?>
<!DOCTYPE svg PUBLIC "-//W3C//DTD SVG 20010904//EN"
 "http://www.w3.org/TR/2001/REC-SVG-20010904/DTD/svg10.dtd">
<svg version="1.0" xmlns="http://www.w3.org/2000/svg"
 width="512.000000pt" height="512.000000pt" viewBox="0 0 512.000000 512.000000"
 preserveAspectRatio="xMidYMid meet">
<metadata>
Created by potrace 1.11, written by Peter Selinger 2001-2013
</metadata>
<g transform="translate(0.000000,512.000000) scale(0.100000,-0.100000)"
fill="#000000" stroke="none">
<path d="M3 4908 l2 -213 1408 0 c774 0 1407 -1 1407 -2 0 -1 -31 -49 -68
-105 -83 -124 -625 -942 -987 -1488 -144 -217 -409 -618 -590 -890 -181 -272
-464 -700 -630 -950 -166 -250 -356 -537 -423 -638 l-122 -183 0 -220 0 -219
1744 0 1744 0 0 215 c0 118 -3 216 -6 216 -4 1 -668 2 -1477 3 -808 0 -1470 3
-1470 6 0 4 228 349 248 375 4 5 39 57 77 115 38 58 74 112 80 120 16 24 428
638 935 1395 258 385 564 842 680 1015 116 173 356 531 533 795 l322 481 0
192 0 192 -1705 0 -1705 0 3 -212z"/>
<path d="M3896 5061 l-58 -59 40 -38 c22 -22 138 -133 257 -249 120 -115 282
-272 359 -347 l141 -138 -112 -107 c-61 -60 -212 -205 -335 -324 -122 -119
-267 -258 -321 -310 l-99 -95 114 -108 c62 -60 216 -208 341 -330 126 -122
269 -259 319 -306 l89 -86 -118 -114 c-65 -62 -226 -218 -358 -345 -132 -128
-273 -263 -313 -302 l-73 -69 183 -176 c101 -97 221 -213 268 -258 47 -46 160
-155 252 -243 l167 -161 -62 -59 c-34 -32 -121 -116 -192 -185 -72 -70 -226
-219 -343 -332 l-212 -205 61 -58 62 -58 71 70 c39 38 101 98 137 133 36 35
169 163 295 284 126 122 273 264 327 315 l98 94 -114 110 c-62 61 -219 212
-348 336 -129 125 -271 262 -316 306 -46 43 -83 82 -83 87 0 4 21 28 48 53 26
25 150 145 276 267 126 121 250 241 275 265 25 24 93 89 149 145 l104 101
-114 109 c-62 60 -216 208 -341 330 -126 122 -269 259 -318 305 l-88 84 57 55
c72 69 497 480 567 547 28 28 94 92 147 142 l95 93 -131 129 c-72 71 -147 144
-166 161 -19 18 -140 134 -269 259 -129 124 -252 244 -275 266 -87 84 -75 82
-140 16z"/>
</g>
</svg>
